<svg width="31" height="30" viewBox="0 0 31 30" fill="none" xmlns="http://www.w3.org/2000/svg">
<path d="M17.6437 14.9984L29.4489 3.21194C29.8018 2.85909 30 2.38052 30 1.88151C30 1.3825 29.8018 0.903933 29.4489 0.551081C29.0961 0.19823 28.6175 0 28.1185 0C27.6195 0 27.1409 0.19823 26.7881 0.551081L15.0016 12.3563L3.21513 0.551081C2.86228 0.19823 2.38371 4.43041e-07 1.88471 4.46759e-07C1.3857 4.50477e-07 0.907131 0.19823 0.554279 0.551081C0.201428 0.903933 0.00319835 1.3825 0.00319835 1.88151C0.00319834 2.38052 0.201428 2.85909 0.554279 3.21194L12.3595 14.9984L0.554279 26.7849C0.378647 26.9591 0.239244 27.1663 0.144112 27.3947C0.0489794 27.623 0 27.8679 0 28.1153C0 28.3627 0.0489794 28.6076 0.144112 28.8359C0.239244 29.0643 0.378647 29.2715 0.554279 29.4457C0.728477 29.6214 0.935726 29.7608 1.16407 29.8559C1.39242 29.951 1.63734 30 1.88471 30C2.13208 30 2.377 29.951 2.60534 29.8559C2.83369 29.7608 3.04094 29.6214 3.21513 29.4457L15.0016 17.6405L26.7881 29.4457C26.9623 29.6214 27.1695 29.7608 27.3979 29.8559C27.6262 29.951 27.8711 30 28.1185 30C28.3659 30 28.6108 29.951 28.8391 29.8559C29.0675 29.7608 29.2747 29.6214 29.4489 29.4457C29.6245 29.2715 29.764 29.0643 29.8591 28.8359C29.9542 28.6076 30.0032 28.3627 30.0032 28.1153C30.0032 27.8679 29.9542 27.623 29.8591 27.3947C29.764 27.1663 29.6245 26.9591 29.4489 26.7849L17.6437 14.9984Z" fill="black"/>
</svg>
