<svg width="28" height="28" viewBox="0 0 28 28" fill="none" xmlns="http://www.w3.org/2000/svg">
<path d="M25.55 0.925049H2.45C1.373 0.925049 0.5 1.79805 0.5 2.87505V25.975C0.5 27.052 1.373 27.925 2.45 27.925H25.55C26.627 27.925 27.5 27.052 27.5 25.975V2.87505C27.5 1.79805 26.627 0.925049 25.55 0.925049ZM8.5085 23.932H4.5005V11.047H8.5085V23.932ZM6.506 9.28605C5.2205 9.28605 4.1825 8.24505 4.1825 6.96405C4.1825 5.68155 5.219 4.64205 6.506 4.64205C7.787 4.64205 8.8265 5.68305 8.8265 6.96405C8.8265 8.24655 7.787 9.28605 6.506 9.28605ZM23.5085 23.932H19.505V17.6665C19.505 16.1725 19.4795 14.2495 17.4245 14.2495C15.341 14.2495 15.023 15.8785 15.023 17.5585V23.932H11.0225V11.047H14.861V12.808H14.9165C15.4505 11.7955 16.757 10.7275 18.7055 10.7275C22.76 10.7275 23.51 13.396 23.51 16.8655L23.5085 23.932Z" fill="white"/>
</svg>
