<svg width="21" height="21" viewBox="0 0 21 21" fill="none" xmlns="http://www.w3.org/2000/svg">
<path d="M16.8966 3H4.06328C3.46495 3 2.97995 3.485 2.97995 4.08333V16.9167C2.97995 17.515 3.46495 18 4.06328 18H16.8966C17.495 18 17.9799 17.515 17.9799 16.9167V4.08333C17.9799 3.485 17.495 3 16.8966 3ZM7.42912 15.7817H5.20245V8.62333H7.42912V15.7817ZM6.31662 7.645C5.60245 7.645 5.02578 7.06667 5.02578 6.355C5.02578 5.6425 5.60162 5.065 6.31662 5.065C7.02828 5.065 7.60578 5.64333 7.60578 6.355C7.60578 7.0675 7.02828 7.645 6.31662 7.645ZM15.7625 15.7817H13.5383V12.3008C13.5383 11.4708 13.5241 10.4025 12.3825 10.4025C11.2249 10.4025 11.0483 11.3075 11.0483 12.2408V15.7817H8.82578V8.62333H10.9583V9.60167H10.9891C11.2858 9.03917 12.0116 8.44583 13.0941 8.44583C15.3466 8.44583 15.7633 9.92833 15.7633 11.8558L15.7625 15.7817Z" fill="#282828"/>
</svg>
