<svg width="28" height="28" viewBox="0 0 28 28" fill="none" xmlns="http://www.w3.org/2000/svg">
<path d="M14 3.35805C17.6045 3.35805 18.032 3.37155 19.4555 3.43605C20.771 3.49605 21.4865 3.71655 21.962 3.90105C22.592 4.14555 23.042 4.43805 23.5145 4.91055C23.987 5.38305 24.2795 5.83305 24.524 6.46305C24.7085 6.93855 24.929 7.65405 24.989 8.96955C25.0535 10.393 25.067 10.8205 25.067 14.425C25.067 18.0295 25.0535 18.457 24.989 19.8805C24.929 21.196 24.7085 21.9116 24.524 22.3871C24.2795 23.017 23.987 23.467 23.5145 23.9395C23.042 24.4121 22.592 24.7045 21.962 24.9491C21.4865 25.1336 20.771 25.354 19.4555 25.414C18.032 25.4785 17.606 25.4921 14 25.4921C10.394 25.4921 9.968 25.4785 8.5445 25.414C7.229 25.354 6.5135 25.1336 6.038 24.9491C5.408 24.7045 4.958 24.4121 4.4855 23.9395C4.013 23.467 3.7205 23.017 3.476 22.3871C3.2915 21.9116 3.071 21.196 3.011 19.8805C2.9465 18.457 2.933 18.0295 2.933 14.425C2.933 10.8205 2.9465 10.393 3.011 8.96955C3.071 7.65405 3.2915 6.93855 3.476 6.46305C3.7205 5.83305 4.013 5.38305 4.4855 4.91055C4.958 4.43805 5.408 4.14555 6.038 3.90105C6.5135 3.71655 7.229 3.49605 8.5445 3.43605C9.968 3.37155 10.3955 3.35805 14 3.35805ZM14 0.925049C10.334 0.925049 9.8735 0.940049 8.4335 1.00605C6.9965 1.07205 6.0155 1.30005 5.1575 1.63305C4.2695 1.97805 3.5165 2.44005 2.7665 3.19155C2.0165 3.94155 1.5545 4.69455 1.2095 5.58255C0.875 6.44055 0.647 7.42155 0.581 8.85855C0.515 10.2985 0.5 10.759 0.5 14.425C0.5 18.091 0.515 18.5515 0.581 19.9916C0.647 21.4285 0.875 22.4095 1.208 23.269C1.553 24.157 2.015 24.91 2.765 25.66C3.515 26.41 4.268 26.872 5.156 27.217C6.014 27.55 6.9965 27.7795 8.4335 27.844C9.8735 27.91 10.334 27.925 14 27.925C17.666 27.925 18.1265 27.91 19.5665 27.844C21.0035 27.778 21.9845 27.55 22.844 27.217C23.732 26.872 24.485 26.41 25.235 25.66C25.985 24.91 26.447 24.157 26.792 23.269C27.125 22.411 27.3545 21.4285 27.419 19.9916C27.485 18.5515 27.5 18.091 27.5 14.425C27.5 10.759 27.485 10.2985 27.419 8.85855C27.353 7.42155 27.125 6.44055 26.792 5.58105C26.447 4.69305 25.985 3.94005 25.235 3.19005C24.485 2.44005 23.732 1.97805 22.844 1.63305C21.986 1.30005 21.0035 1.07055 19.5665 1.00605C18.1265 0.940049 17.666 0.925049 14 0.925049ZM14 7.49205C10.172 7.49205 7.067 10.5955 7.067 14.425C7.067 18.2545 10.172 21.358 14 21.358C17.828 21.358 20.933 18.2545 20.933 14.425C20.933 10.5955 17.828 7.49205 14 7.49205ZM14 18.925C11.5145 18.925 9.5 16.9105 9.5 14.425C9.5 11.9395 11.5145 9.92505 14 9.92505C16.4855 9.92505 18.5 11.9395 18.5 14.425C18.5 16.9105 16.4855 18.925 14 18.925ZM21.206 5.59905C20.312 5.59905 19.586 6.32505 19.586 7.21905C19.586 8.11305 20.312 8.83905 21.206 8.83905C22.1 8.83905 22.826 8.11305 22.826 7.21905C22.826 6.32505 22.1015 5.59905 21.206 5.59905Z" fill="white"/>
</svg>
