<svg width="21" height="21" viewBox="0 0 21 21" fill="none" xmlns="http://www.w3.org/2000/svg">
<path d="M10.4799 4.35167C12.4824 4.35167 12.7199 4.35917 13.5108 4.395C14.2416 4.42833 14.6391 4.55083 14.9033 4.65333C15.2533 4.78917 15.5033 4.95167 15.7658 5.21417C16.0283 5.47667 16.1908 5.72667 16.3266 6.07667C16.4291 6.34083 16.5516 6.73833 16.5849 7.46917C16.6208 8.26 16.6283 8.4975 16.6283 10.5C16.6283 12.5025 16.6208 12.74 16.5849 13.5308C16.5516 14.2617 16.4291 14.6592 16.3266 14.9233C16.1908 15.2733 16.0283 15.5233 15.7658 15.7858C15.5033 16.0483 15.2533 16.2108 14.9033 16.3467C14.6391 16.4492 14.2416 16.5717 13.5108 16.605C12.7199 16.6408 12.4833 16.6483 10.4799 16.6483C8.47662 16.6483 8.23995 16.6408 7.44912 16.605C6.71828 16.5717 6.32078 16.4492 6.05662 16.3467C5.70662 16.2108 5.45662 16.0483 5.19412 15.7858C4.93162 15.5233 4.76912 15.2733 4.63328 14.9233C4.53078 14.6592 4.40828 14.2617 4.37495 13.5308C4.33912 12.74 4.33162 12.5025 4.33162 10.5C4.33162 8.4975 4.33912 8.26 4.37495 7.46917C4.40828 6.73833 4.53078 6.34083 4.63328 6.07667C4.76912 5.72667 4.93162 5.47667 5.19412 5.21417C5.45662 4.95167 5.70662 4.78917 6.05662 4.65333C6.32078 4.55083 6.71828 4.42833 7.44912 4.395C8.23995 4.35917 8.47745 4.35167 10.4799 4.35167ZM10.4799 3C8.44328 3 8.18745 3.00833 7.38745 3.045C6.58912 3.08167 6.04412 3.20833 5.56745 3.39333C5.07412 3.585 4.65578 3.84167 4.23912 4.25917C3.82245 4.67583 3.56578 5.09417 3.37412 5.5875C3.18828 6.06417 3.06162 6.60917 3.02495 7.4075C2.98828 8.2075 2.97995 8.46333 2.97995 10.5C2.97995 12.5367 2.98828 12.7925 3.02495 13.5925C3.06162 14.3908 3.18828 14.9358 3.37328 15.4133C3.56495 15.9067 3.82162 16.325 4.23828 16.7417C4.65495 17.1583 5.07328 17.415 5.56662 17.6067C6.04328 17.7917 6.58912 17.9192 7.38745 17.955C8.18745 17.9917 8.44328 18 10.4799 18C12.5166 18 12.7725 17.9917 13.5724 17.955C14.3708 17.9183 14.9158 17.7917 15.3933 17.6067C15.8866 17.415 16.3049 17.1583 16.7216 16.7417C17.1383 16.325 17.3949 15.9067 17.5866 15.4133C17.7716 14.9367 17.8991 14.3908 17.9349 13.5925C17.9716 12.7925 17.9799 12.5367 17.9799 10.5C17.9799 8.46333 17.9716 8.2075 17.9349 7.4075C17.8983 6.60917 17.7716 6.06417 17.5866 5.58667C17.3949 5.09333 17.1383 4.675 16.7216 4.25833C16.3049 3.84167 15.8866 3.585 15.3933 3.39333C14.9166 3.20833 14.3708 3.08083 13.5724 3.045C12.7725 3.00833 12.5166 3 10.4799 3ZM10.4799 6.64833C8.35328 6.64833 6.62828 8.3725 6.62828 10.5C6.62828 12.6275 8.35328 14.3517 10.4799 14.3517C12.6066 14.3517 14.3316 12.6275 14.3316 10.5C14.3316 8.3725 12.6066 6.64833 10.4799 6.64833ZM10.4799 13C9.09912 13 7.97995 11.8808 7.97995 10.5C7.97995 9.11917 9.09912 8 10.4799 8C11.8608 8 12.9799 9.11917 12.9799 10.5C12.9799 11.8808 11.8608 13 10.4799 13ZM14.4833 5.59667C13.9866 5.59667 13.5833 6 13.5833 6.49667C13.5833 6.99333 13.9866 7.39667 14.4833 7.39667C14.9799 7.39667 15.3833 6.99333 15.3833 6.49667C15.3833 6 14.9808 5.59667 14.4833 5.59667Z" fill="#282828"/>
</svg>
