<svg width="15" height="9" viewBox="0 0 15 9" fill="none" xmlns="http://www.w3.org/2000/svg">
<path d="M14.2661 0.872418C14.0123 0.633886 13.6691 0.5 13.3113 0.5C12.9535 0.5 12.6103 0.633886 12.3566 0.872418L7.49473 5.40609L2.70062 0.872418C2.44688 0.633886 2.10363 0.5 1.74585 0.5C1.38808 0.5 1.04483 0.633886 0.791094 0.872418C0.66416 0.991475 0.56341 1.13312 0.494655 1.28919C0.425901 1.44525 0.390503 1.61265 0.390503 1.78171C0.390503 1.95078 0.425901 2.11818 0.494655 2.27424C0.56341 2.43031 0.66416 2.57195 0.791094 2.69101L6.5332 8.12117C6.6591 8.24121 6.80888 8.33649 6.97391 8.40151C7.13894 8.46652 7.31595 8.5 7.49473 8.5C7.67351 8.5 7.85052 8.46652 8.01555 8.40151C8.18058 8.33649 8.33037 8.24121 8.45627 8.12117L14.2661 2.69101C14.393 2.57195 14.4938 2.43031 14.5625 2.27424C14.6313 2.11818 14.6667 1.95078 14.6667 1.78171C14.6667 1.61265 14.6313 1.44525 14.5625 1.28919C14.4938 1.13312 14.393 0.991475 14.2661 0.872418Z" fill="#B0B0B0"/>
</svg>
