<svg width="21" height="21" viewBox="0 0 21 21" fill="none" xmlns="http://www.w3.org/2000/svg">
<path d="M19.005 5.43667C18.3916 5.70833 17.7325 5.8925 17.0408 5.975C17.7466 5.55167 18.2891 4.88167 18.5441 4.08333C17.8833 4.475 17.1516 4.76 16.3725 4.91333C15.75 4.24833 14.8608 3.83333 13.8775 3.83333C11.9891 3.83333 10.4583 5.36417 10.4583 7.2525C10.4583 7.52083 10.4883 7.78167 10.5466 8.03167C7.70495 7.88917 5.18579 6.52833 3.49912 4.45917C3.20495 4.96417 3.03579 5.55167 3.03579 6.17833C3.03579 7.365 3.63912 8.41083 4.55662 9.02417C3.99579 9.00667 3.46912 8.8525 3.00745 8.59667C3.00745 8.61083 3.00745 8.625 3.00745 8.64C3.00745 10.2967 4.18579 11.6792 5.75079 11.9925C5.46412 12.0708 5.16162 12.1125 4.84995 12.1125C4.62995 12.1125 4.41579 12.0908 4.20662 12.0508C4.64162 13.4092 5.90495 14.3975 7.40079 14.4258C6.23079 15.3425 4.75579 15.8892 3.15412 15.8892C2.87829 15.8892 2.60579 15.8733 2.33829 15.8417C3.85162 16.8117 5.64912 17.3775 7.57995 17.3775C13.8691 17.3775 17.3091 12.1675 17.3091 7.64833C17.3091 7.5 17.3058 7.3525 17.2991 7.20583C17.9675 6.725 18.5466 6.1225 19.005 5.43667Z" fill="#282828"/>
</svg>
